<svg xmlns="http://www.w3.org/2000/svg" width="29.23mm" height="7.86mm" viewBox="0 0 82.85 22.27"><defs><style>.cls-1{fill:#992f39;}.cls-2{fill:#898989;}</style></defs><path class="cls-1" d="M12.67,18A8,8,0,0,1,6.3,14.67a7,7,0,0,0,4,1.24c4.23,0,7.65-3.39,7.65-8.69a5.17,5.17,0,1,1-7.1-4.79h-.41A9.51,9.51,0,0,0,5.46,3.79h0a9.55,9.55,0,1,0,14.36,9.67A8.22,8.22,0,0,1,12.67,18Z"/><path class="cls-2" d="M33,4.05c0-.47.21-.71.64-.71s.65.24.65.71V5.41h6.57c.38,0,.57.17.57.5s-.19.5-.57.5H28a.32.32,0,0,0-.36.36v5.72a13.25,13.25,0,0,1-1.29,6.14q-.36.64-.78.57t-.36-.78a16.89,16.89,0,0,0,1.14-5.36V6.56a1.09,1.09,0,0,1,.36-.79,1.09,1.09,0,0,1,.79-.36H33Zm0,3.29c.43,0,.64.34.64.86a37.25,37.25,0,0,1-3.43,9.43,58.36,58.36,0,0,0,8.86-1,39,39,0,0,0-2.5-5.57c-.19-.38-.19-.67,0-.86s.57-.12.86.21a22.5,22.5,0,0,1,2.29,4.08,28.64,28.64,0,0,1,1.5,3.93c.14.57,0,.9-.5,1s-.67-.1-.86-.57-.31-.88-.5-1.36A61.16,61.16,0,0,1,28,19a.57.57,0,0,1-.65-.64A.58.58,0,0,1,28,17.7H29a64.87,64.87,0,0,0,3.29-9.79A.63.63,0,0,1,33,7.34Z"/><path class="cls-2" d="M51.7,3.07a.48.48,0,0,1,.07.78,7.36,7.36,0,0,1-.64.57h5.5a1.09,1.09,0,0,1,.79.36,1.12,1.12,0,0,1,.35.79V8.85a1.12,1.12,0,0,1-.35.79,1.09,1.09,0,0,1-.79.36H46v1.28H59c.38,0,.57.17.57.5s-.19.5-.57.5H46V13a.5.5,0,0,0,.57.57H58.06a1.25,1.25,0,0,1,1.36,1.36c0,.9-.05,1.86-.15,2.86a2.09,2.09,0,0,1-2.21,2,7,7,0,0,1-1.79-.22c-.38-.09-.55-.31-.5-.64a.45.45,0,0,1,.5-.36,10,10,0,0,0,1.72.15c.71,0,1.12-.48,1.21-1.43,0-.62.07-1.34.07-2.15a.5.5,0,0,0-.57-.57H49.91v3.07h3.86a.5.5,0,0,0,.57-.57v-1.5c0-.38.17-.57.5-.57s.5.19.5.57v1.79A1.22,1.22,0,0,1,54.2,18.5H44.84a1.09,1.09,0,0,1-.79-.36,1.06,1.06,0,0,1-.35-.78V15.57c0-.38.16-.57.5-.57s.5.19.5.57v1.5a.5.5,0,0,0,.57.57h3.64V14.57H46.13a1.09,1.09,0,0,1-.79-.36,1.07,1.07,0,0,1-.36-.78V5.57a1.09,1.09,0,0,1,.36-.79,1.09,1.09,0,0,1,.79-.36h3.5c.38-.33.78-.71,1.21-1.14A.67.67,0,0,1,51.7,3.07ZM46,5.85v.93H56.77V5.85a.5.5,0,0,0-.57-.57H46.55A.5.5,0,0,0,46,5.85Zm0,3.29H56.2a.5.5,0,0,0,.57-.57V7.64H46Z"/><path class="cls-2" d="M62,5.53c0-.38.17-.57.5-.57s.5.19.5.57v7.65c0,.24.12.35.36.35H77.29q.57,0,.57.51c0,.33-.19.5-.57.5H70.5v4.14c0,.48-.21.71-.64.71s-.64-.23-.64-.71V14.54H62.93a.82.82,0,0,1-.93-.93Zm4.21,10.08a.65.65,0,0,1-.07.85A9.42,9.42,0,0,1,62.78,19c-.38.09-.61,0-.71-.22s0-.55.29-.78a12,12,0,0,0,2.78-2.36C65.57,15.32,65.93,15.32,66.21,15.61ZM75.58,3.39a.83.83,0,0,1,.93.93v6.93a.83.83,0,0,1-.93.93H66a.82.82,0,0,1-.93-.93V4.32A.82.82,0,0,1,66,3.39ZM66.07,4.75V6H75.5V4.75c0-.24-.11-.36-.35-.36H66.43A.32.32,0,0,0,66.07,4.75Zm0,3.78H75.5V7H66.07Zm0,2.29a.32.32,0,0,0,.36.36h8.72c.24,0,.35-.12.35-.36V9.53H66.07Zm7.43,4.57a.53.53,0,0,1,.72-.14,12.45,12.45,0,0,1,3.29,2.43.62.62,0,0,1,0,.93.7.7,0,0,1-1,0,22.85,22.85,0,0,0-2.86-2.5A.55.55,0,0,1,73.5,15.39Z"/></svg>